<?xml version="1.0" encoding="UTF-8" standalone="no"?>
<!-- Generator: Adobe Illustrator 12.0.0, SVG Export Plug-In . SVG Version: 6.00 Build 51448)  -->

<svg
   xmlns:dc="http://purl.org/dc/elements/1.1/"
   xmlns:cc="http://creativecommons.org/ns#"
   xmlns:rdf="http://www.w3.org/1999/02/22-rdf-syntax-ns#"
   xmlns:svg="http://www.w3.org/2000/svg"
   xmlns="http://www.w3.org/2000/svg"
   xmlns:sodipodi="http://sodipodi.sourceforge.net/DTD/sodipodi-0.dtd"
   xmlns:inkscape="http://www.inkscape.org/namespaces/inkscape"
   version="1.0"
   id="Calque_1"
   width="212"
   height="205"
   viewBox="0 0 212 205.00001"
   overflow="visible"
   enable-background="new 0 0 210.5 204.094"
   xml:space="preserve"
   inkscape:version="0.91 r13725"
   sodipodi:docname="logo_inrae_square.svg"
   style="overflow:visible"
   inkscape:export-filename="E:\Data\boulot\misc\logiciels\airGR\website\airGR_gitlab\fig\bitmap.png"
   inkscape:export-xdpi="599.85748"
   inkscape:export-ydpi="599.85748"><metadata
     id="metadata33"><rdf:RDF><cc:Work
         rdf:about=""><dc:format>image/svg+xml</dc:format><dc:type
           rdf:resource="http://purl.org/dc/dcmitype/StillImage" /><dc:title /></cc:Work></rdf:RDF></metadata><defs
     id="defs31"><clipPath
       clipPathUnits="userSpaceOnUse"
       id="clipPath18"><path
         d="m 0,0 3414,0 0,1875.56 -3414,0 L 0,0 Z"
         id="path20-4"
         inkscape:connector-curvature="0" /></clipPath><filter
       inkscape:collect="always"
       style="color-interpolation-filters:sRGB"
       id="filter4182"><feBlend
         inkscape:collect="always"
         mode="multiply"
         in2="BackgroundImage"
         id="feBlend4184" /></filter><clipPath
       clipPathUnits="userSpaceOnUse"
       id="clipPath4210"><path
         style="overflow:visible;fill:#ffffff"
         inkscape:connector-curvature="0"
         id="path4212"
         d="m 210.73819,164.037 c 1.007,5.722 -2.821,11.193 -8.558,12.198 L 39.991188,204.838 c -5.73,1.013 -11.195,-2.817 -12.207,-8.539 L 0.56318773,41.882002 c -1.016,-5.734 2.81799997,-11.206 8.54799997,-12.219 L 171.30319,1.0690017 c 5.72,-1.01499998 11.193,2.817 12.196,8.549 L 210.73819,164.037 Z" /></clipPath></defs><sodipodi:namedview
     pagecolor="#d1d1d1"
     bordercolor="#666666"
     borderopacity="1"
     objecttolerance="10"
     gridtolerance="10"
     guidetolerance="10"
     inkscape:pageopacity="0"
     inkscape:pageshadow="2"
     inkscape:window-width="1920"
     inkscape:window-height="1132"
     id="namedview29"
     showgrid="false"
     inkscape:zoom="2.3126599"
     inkscape:cx="224.27662"
     inkscape:cy="102.047"
     inkscape:window-x="-8"
     inkscape:window-y="-8"
     inkscape:window-maximized="1"
     inkscape:current-layer="layer6" /><g
     style="display:none;opacity:0.35;filter:url(#filter4182)"
     inkscape:label="sigle_entier"
     id="g4206"
     inkscape:groupmode="layer"
     sodipodi:insensitive="true"><path
       inkscape:connector-curvature="0"
       id="path4208"
       style="overflow:visible;fill:#19b2ad;fill-opacity:1;fill-rule:nonzero;stroke:none"
       d="m 195.18584,106.97875 c 0,-8.84592 -1.88473,-17.552766 -5.3246,-25.648938 -0.63176,-0.929714 -1.25719,-0.386502 -1.47995,-0.130005 L 175.27253,101.7772 c -1.17216,2.04558 -2.02738,3.47212 -2.25647,8.59989 -0.0134,0.35607 -0.0323,0.6451 -0.0829,0.90174 -2.16863,22.17667 -20.91189,39.5652 -43.64808,39.5652 -4.25644,0 -8.48548,-0.61988 -12.56765,-1.84249 -6.94299,-2.08072 -13.33152,-5.90512 -18.472707,-11.05896 -0.18271,-0.18419 -0.363312,-0.36978 -0.541806,-0.55727 27.956773,-12.3387 51.361253,-33.83076 66.068023,-60.723744 3.2157,-5.881162 6.02663,-12.047633 8.35337,-18.331459 0.2305,-0.621918 0.0457,-1.322542 -0.4631,-1.749802 -4.89382,-4.122927 -10.32734,-7.500959 -16.15158,-10.039225 -8.3091,-3.624691 -17.1319,-5.463037 -26.22455,-5.463037 -0.014,0 -0.0253,0.0021 -0.0372,0.0021 -0.0112,0 -0.0225,-0.0021 -0.0365,-0.0021 -22.54434,0 -42.464673,11.420796 -54.329595,28.777566 -7.243056,10.578923 -11.497394,23.359505 -11.497394,37.123141 0,6.23533 0.881226,12.40623 2.621892,18.36821 -2.993637,0.62944 -6.027329,1.14243 -9.049076,1.53308 L 25.391875,43.355597 c -0.22895,-0.610674 -0.816363,-1.015448 -1.468358,-1.015448 l -19.6009438,0 c -0.6544541,0 -1.2391268,0.404774 -1.4702553,1.017556 L -44.635892,169.24021 c -0.182821,0.4834 -0.118037,1.0239 0.175683,1.4524 0.295915,0.42439 0.777121,0.67968 1.292371,0.67968 l 22.710616,0 c 0.665908,0 1.262106,-0.42603 1.484239,-1.05904 l 7.622672,-21.89013 50.926052,0 0.238226,0.68439 7.404684,21.20793 c 0.222064,0.63082 0.816575,1.05685 1.484872,1.05685 l 22.793806,0 c 0.515102,0 1.001393,-0.25529 1.292323,-0.67968 0.293742,-0.4285 0.360502,-0.969 0.177792,-1.4524 l -8.3091,-21.98728 c 3.541768,-0.58938 7.077211,-1.32668 10.549408,-2.18669 0.09979,-0.0252 0.200981,-0.0445 0.300769,-0.0675 0.09487,0.13696 0.191846,0.27533 0.288823,0.40955 4.318989,6.00428 9.574017,11.20801 15.617509,15.46945 11.131977,7.85164 24.202077,12.00188 37.796427,12.00188 l 0,-0.003 c 0.0253,0 0.0485,0.003 0.0738,0.003 36.33756,0 65.90078,-29.56329 65.90078,-65.90084 M 129.23377,63.115709 c 5.49395,0.0021 10.84806,1.019664 15.94638,3.033693 -12.82696,23.67222 -33.36921,42.276478 -58.132774,52.647818 -1.079396,-3.84661 -1.627527,-7.81431 -1.627527,-11.81847 0,-24.171796 19.651891,-43.834931 43.813921,-43.863041 m -96.973466,64.353991 0.166548,0.4787 -36.6447177,0 2.8968709,-8.32048 L 14.081479,75.404379 32.260304,127.4697"
       transform="translate(7.6293945e-6,0)" /></g><g
     style="display:inline"
     inkscape:label="fond"
     id="g4202"
     inkscape:groupmode="layer"
     sodipodi:insensitive="true"><path
       d="m 210.73819,164.037 c 1.007,5.722 -2.821,11.193 -8.558,12.198 L 39.991188,204.838 c -5.73,1.013 -11.195,-2.817 -12.207,-8.539 L 0.56318773,41.882002 c -1.016,-5.734 2.81799997,-11.206 8.54799997,-12.219 L 171.30319,1.0690017 c 5.72,-1.01499998 11.193,2.817 12.196,8.549 L 210.73819,164.037 Z"
       id="path4204"
       inkscape:connector-curvature="0"
       style="overflow:visible;fill:#ffffff"
       transform="translate(7.6293945e-6,0)" /></g><g
     inkscape:groupmode="layer"
     id="layer6"
     inkscape:label="sigle"
     style="display:inline;opacity:1;"><path
       transform="translate(7.6293945e-6,0)"
       d="m 195.18584,106.97875 c 0,-8.84592 -1.88473,-17.552766 -5.3246,-25.648938 -0.63176,-0.929714 -1.25719,-0.386502 -1.47995,-0.130005 L 175.27253,101.7772 c -1.17216,2.04558 -2.02738,3.47212 -2.25647,8.59989 -0.0134,0.35607 -0.0323,0.6451 -0.0829,0.90174 -2.16863,22.17667 -20.91189,39.5652 -43.64808,39.5652 -4.25644,0 -8.48548,-0.61988 -12.56765,-1.84249 -6.94299,-2.08072 -13.33152,-5.90512 -18.472707,-11.05896 -0.18271,-0.18419 -0.363312,-0.36978 -0.541806,-0.55727 27.956773,-12.3387 51.361253,-33.83076 66.068023,-60.723744 3.2157,-5.881162 6.02663,-12.047633 8.35337,-18.331459 0.2305,-0.621918 0.0457,-1.322542 -0.4631,-1.749802 -4.89382,-4.122927 -10.32734,-7.500959 -16.15158,-10.039225 -8.3091,-3.624691 -17.1319,-5.463037 -26.22455,-5.463037 -0.014,0 -0.0253,0.0021 -0.0372,0.0021 -0.0112,0 -0.0225,-0.0021 -0.0365,-0.0021 -22.54434,0 -42.464673,11.420796 -54.329595,28.777566 -7.243056,10.578923 -11.497394,23.359505 -11.497394,37.123141 0,6.23533 0.881226,12.40623 2.621892,18.36821 -2.993637,0.62944 -6.027329,1.14243 -9.049076,1.53308 L 25.391875,43.355597 c -0.22895,-0.610674 -0.816363,-1.015448 -1.468358,-1.015448 l -19.6009438,0 c -0.6544541,0 -1.2391268,0.404774 -1.4702553,1.017556 L -44.635892,169.24021 c -0.182821,0.4834 -0.118037,1.0239 0.175683,1.4524 0.295915,0.42439 0.777121,0.67968 1.292371,0.67968 l 22.710616,0 c 0.665908,0 1.262106,-0.42603 1.484239,-1.05904 l 7.622672,-21.89013 50.926052,0 0.238226,0.68439 7.404684,21.20793 c 0.222064,0.63082 0.816575,1.05685 1.484872,1.05685 l 22.793806,0 c 0.515102,0 1.001393,-0.25529 1.292323,-0.67968 0.293742,-0.4285 0.360502,-0.969 0.177792,-1.4524 l -8.3091,-21.98728 c 3.541768,-0.58938 7.077211,-1.32668 10.549408,-2.18669 0.09979,-0.0252 0.200981,-0.0445 0.300769,-0.0675 0.09487,0.13696 0.191846,0.27533 0.288823,0.40955 4.318989,6.00428 9.574017,11.20801 15.617509,15.46945 11.131977,7.85164 24.202077,12.00188 37.796427,12.00188 l 0,-0.003 c 0.0253,0 0.0485,0.003 0.0738,0.003 36.33756,0 65.90078,-29.56329 65.90078,-65.90084 M 129.23377,63.115709 c 5.49395,0.0021 10.84806,1.019664 15.94638,3.033693 -12.82696,23.67222 -33.36921,42.276478 -58.132774,52.647818 -1.079396,-3.84661 -1.627527,-7.81431 -1.627527,-11.81847 0,-24.171796 19.651891,-43.834931 43.813921,-43.863041 m -96.973466,64.353991 0.166548,0.4787 -36.6447177,0 2.8968709,-8.32048 L 14.081479,75.404379 32.260304,127.4697"
       style="overflow:visible;fill:#19b2ad;fill-opacity:0.21568628;fill-rule:nonzero;stroke:none"
       id="path22"
       inkscape:connector-curvature="0"
       clip-path="url(#clipPath4210)" /></g><g
     inkscape:groupmode="layer"
     id="layer4"
     inkscape:label="titre"
     style="display:inline"><g
       style="overflow:visible"
       transform="matrix(0.05602335,0,0,-0.05602335,27.926201,126.04956)"
       id="g12"><path
         inkscape:connector-curvature="0"
         id="path14"
         style="fill:#19b2ad;fill-opacity:1;fill-rule:nonzero;stroke:none"
         d="m 135.676,759.152 -126.53147,0 c -5.04687,0 -9.14062375,-4.101 -9.14062375,-9.16 l 0,-732.0623 c 0,-5.0625 4.09375375,-9.16017 9.14062375,-9.16017 l 126.53147,0 c 5.043,0 9.14,4.09767 9.14,9.16017 l 0,732.0623 c 0,5.059 -4.097,9.16 -9.14,9.16" /><path
         inkscape:connector-curvature="0"
         id="path16"
         style="fill:#19b2ad;fill-opacity:1;fill-rule:nonzero;stroke:none"
         d="m 848.699,759.152 -126.035,0 c -5.059,0 -9.144,-4.101 -9.144,-9.16 l 0,-489.601 -310.008,494.472 c -1.668,2.676 -4.598,4.289 -7.735,4.289 l -127.039,0 c -5.043,0 -9.144,-4.101 -9.144,-9.16 l 0,-732.0623 c 0,-5.0625 4.101,-9.16017 9.144,-9.16017 l 127.039,0 c 5.047,0 9.149,4.09767 9.149,9.16017 l 0,487.6173 308.996,-492.5001 c 1.668,-2.6563 4.586,-4.27737 7.73,-4.27737 l 127.047,0 c 5.039,0 9.141,4.09767 9.141,9.16017 l 0,732.0623 c 0,5.059 -4.102,9.16 -9.141,9.16" /><path
         inkscape:connector-curvature="0"
         id="path18"
         style="fill:#19b2ad;fill-opacity:1;fill-rule:nonzero;stroke:none"
         d="m 1332.47,441.309 c -22.26,-19.969 -53.99,-30.09 -94.33,-30.09 l -121.41,0 0,227.058 124.8,0 c 41.57,-0.64 73.03,-10.957 93.47,-30.625 20.29,-19.574 30.57,-47.972 30.57,-84.422 0,-35.132 -10.82,-61.929 -33.1,-81.921 m 47.98,-116.379 c 39.22,18.144 70.6,43.445 93.35,75.289 24.61,34.476 37.09,77.644 37.09,128.347 0,74.329 -24.26,132.079 -72.1,171.618 -47.35,39.125 -115.01,58.968 -201.15,58.968 l -257.081,0 c -5.059,0 -9.145,-4.101 -9.145,-9.156 l 0,-732.0663 c 0,-5.0508 4.086,-9.15236 9.145,-9.15236 l 127.031,0 c 5.04,0 9.14,4.10156 9.14,9.15236 l 0,272.4103 126.92,0 144.07,-276.6408 c 1.57,-3.0273 4.69,-4.92186 8.09,-4.92186 l 136.09,0 c 5.05,0 9.14,4.10156 9.14,9.15236 l 0,6.5195 c 0,1.5274 -0.38,3.0078 -1.11,4.3477 L 1380.45,324.93" /><path
         inkscape:connector-curvature="0"
         id="path20"
         style="fill:#19b2ad;fill-opacity:1;fill-rule:nonzero;stroke:none"
         d="m 2943.13,383.246 c 0,51.442 -10.96,102.074 -30.97,149.16 -3.67,5.407 -7.31,2.246 -8.6,0.75 l -76.23,-119.664 c -6.82,-11.898 -11.8,-20.191 -13.13,-50.015 -0.08,-2.075 -0.18,-3.75 -0.49,-5.247 -12.6,-128.964 -121.61,-230.085 -253.82,-230.085 -24.76,0 -49.35,3.601 -73.09,10.718 -40.38,12.102 -77.53,34.336 -107.43,64.309 -1.07,1.074 -2.11,2.148 -3.15,3.242 162.58,71.758 298.68,196.742 384.21,353.137 18.7,34.207 35.05,70.062 48.59,106.609 1.33,3.613 0.26,7.692 -2.7,10.176 -28.46,23.973 -60.06,43.617 -93.92,58.379 -48.33,21.086 -99.63,31.773 -152.51,31.773 -0.08,0 -0.15,-0.015 -0.22,-0.015 -0.07,0 -0.14,0.015 -0.21,0.015 -131.11,0 -246.96,-66.422 -315.95,-167.355 -42.13,-61.524 -66.87,-135.848 -66.87,-215.887 0,-36.266 5.12,-72.152 15.25,-106.82 -17.41,-3.664 -35.05,-6.645 -52.63,-8.918 L 1955.7,753.246 c -1.33,3.551 -4.75,5.899 -8.54,5.899 l -113.99,0 c -3.8,0 -7.21,-2.348 -8.55,-5.915 L 1548.45,21.1602 c -1.06,-2.8047 -0.68,-5.9571 1.03,-8.4375 1.71,-2.4805 4.51,-3.95317 7.5,-3.95317 l 132.08,0 c 3.87,0 7.34,2.46877 8.64,6.15237 l 44.32,127.3051 296.17,0 1.37,-3.989 43.07,-123.3278 c 1.29,-3.6719 4.75,-6.14067 8.63,-6.14067 l 132.56,0 c 3,0 5.82,1.47267 7.52,3.95317 1.7,2.4804 2.09,5.6328 1.04,8.4375 l -48.33,127.8708 c 20.6,3.426 41.16,7.715 61.35,12.715 0.58,0.149 1.16,0.254 1.75,0.391 0.55,-0.789 1.11,-1.602 1.68,-2.383 25.12,-34.91 55.67,-65.1759 90.82,-89.961 64.74,-45.6524 140.74,-69.79690625 219.81,-69.79690625 l 0,0.02343755 c 0.14,0 0.28,-0.02343755 0.43,-0.02343755 211.31,0 383.24,171.92590625 383.24,383.24990625 m -383.54,255.082 c 31.95,-0.015 63.09,-5.933 92.73,-17.64 -74.59,-137.668 -194.06,-245.86 -338.07,-306.176 -6.28,22.371 -9.46,45.445 -9.46,68.734 0,140.567 114.28,254.922 254.8,255.082 m -563.95,-374.25 0.97,-2.781 -213.11,0 16.84,48.391 89.58,257.175 105.72,-302.785" /></g></g></svg>